<?xml version="1.0" encoding="UTF-8" standalone="no"?>
<!-- Created with Inkscape (http://www.inkscape.org/) -->

<svg
   xmlns:dc="http://purl.org/dc/elements/1.1/"
   xmlns:cc="http://creativecommons.org/ns#"
   xmlns:rdf="http://www.w3.org/1999/02/22-rdf-syntax-ns#"
   xmlns:svg="http://www.w3.org/2000/svg"
   xmlns="http://www.w3.org/2000/svg"
   xmlns:sodipodi="http://sodipodi.sourceforge.net/DTD/sodipodi-0.dtd"
   xmlns:inkscape="http://www.inkscape.org/namespaces/inkscape"
   width="158.93848mm"
   height="30mm"
   viewBox="0 0 158.93848 30"
   version="1.1"
   id="svg8"
   inkscape:version="0.92.4 (unknown)"
   sodipodi:docname="title-composition.svg"
   inkscape:export-filename="/home/obertuch/Entwicklung/dataverse-kubernetes/docs/title-composition.png"
   inkscape:export-xdpi="52.279999"
   inkscape:export-ydpi="52.279999">
  <defs
     id="defs2" />
  <sodipodi:namedview
     id="base"
     pagecolor="#ffffff"
     bordercolor="#666666"
     borderopacity="1.0"
     inkscape:pageopacity="0.0"
     inkscape:pageshadow="2"
     inkscape:zoom="0.49497475"
     inkscape:cx="-110.97077"
     inkscape:cy="328.00122"
     inkscape:document-units="mm"
     inkscape:current-layer="layer1"
     showgrid="false"
     fit-margin-top="0"
     fit-margin-left="0"
     fit-margin-right="0"
     fit-margin-bottom="0"
     inkscape:window-width="1920"
     inkscape:window-height="1135"
     inkscape:window-x="0"
     inkscape:window-y="0"
     inkscape:window-maximized="1" />
  <metadata
     id="metadata5">
    <rdf:RDF>
      <cc:Work
         rdf:about="">
        <dc:format>image/svg+xml</dc:format>
        <dc:type
           rdf:resource="http://purl.org/dc/dcmitype/StillImage" />
        <dc:title></dc:title>
      </cc:Work>
    </rdf:RDF>
  </metadata>
  <g
     inkscape:label="Ebene 1"
     inkscape:groupmode="layer"
     id="layer1"
     transform="translate(-25.439692,-56.680822)">
    <g
       id="g897"
       transform="matrix(0.07980846,0,0,0.07980846,22.534664,55.451772)"
       style="stroke-width:3.31522942">
      <path
         id="path817"
         d="M 73.9,269 H 36.4 v -18.7 c 4.2,0 7.1,-0.8 8.9,-2.5 1.7,-1.6 2.6,-4.5 2.6,-8.5 V 139 c 0,-4 -0.9,-6.9 -2.6,-8.5 -1.7,-1.7 -4.7,-2.5 -8.9,-2.5 v -18.7 h 36.5 c 12.5,0 22,0.7 28.5,2.1 6.5,1.4 12.1,3.7 16.7,6.9 7.3,5.1 12.6,12.9 15.7,23.3 3.1,10.4 4.6,26.3 4.6,47.6 0,21.3 -1.6,37.1 -4.8,47.4 -3.2,10.3 -8.6,18 -16.2,23.3 -4.8,3.3 -10.6,5.7 -17.1,7.1 -6.6,1.3 -15.4,2 -26.4,2 z m 5.2,-141.1 v 122.3 h 5 c 4.4,0 7.9,-0.5 10.5,-1.5 2.6,-1 4.7,-2.6 6.1,-4.8 2.2,-3.2 3.7,-8 4.6,-14.5 0.8,-6.5 1.3,-20 1.3,-40.4 0,-20.4 -0.4,-33.9 -1.3,-40.4 -0.9,-6.5 -2.4,-11.3 -4.6,-14.5 -1.5,-2.2 -3.5,-3.8 -6.1,-4.8 -2.6,-1 -6.1,-1.5 -10.5,-1.5 h -5 z"
         class="st0"
         inkscape:connector-curvature="0"
         style="fill:#c65b28;stroke-width:3.31522942" />
      <path
         id="path819"
         d="m 212,254.6 c -3.2,6 -7.3,10.4 -12.1,13.4 -4.8,3 -10.4,4.5 -16.8,4.5 -9.4,0 -16.8,-2.8 -22.3,-8.3 -5.5,-5.5 -8.2,-12.9 -8.2,-22.3 0,-8.3 2.2,-15.2 6.6,-20.7 4.4,-5.5 13,-11.4 25.7,-17.6 10.9,-5.3 17.8,-9.8 20.8,-13.4 3,-3.6 4.5,-8.3 4.5,-13.9 0,-5.4 -1.7,-9.8 -5.1,-13 -3.4,-3.2 -7.9,-4.8 -13.6,-4.8 -3.8,0 -7.1,0.6 -10,1.8 -2.9,1.2 -5.4,3 -7.4,5.5 0.2,0 0.3,0 0.6,-0.1 1.4,-0.2 2.4,-0.3 3.1,-0.3 4.1,0 7.5,1.4 10.1,4.1 2.6,2.8 3.9,6.3 3.9,10.7 0,4.6 -1.6,8.3 -4.7,11.2 -3.1,2.9 -7.1,4.4 -12.1,4.4 -5.4,0 -9.8,-1.7 -13.1,-5 -3.3,-3.3 -5,-7.8 -5,-13.5 0,-9.8 3.8,-17.7 11.4,-23.9 7.6,-6.2 17.6,-9.3 29.9,-9.3 8.9,0 16.3,1.4 22.2,4.1 5.9,2.7 10.6,6.9 14.2,12.5 1.3,2.1 2.3,5.3 2.9,9.4 0.6,4.1 0.9,10.2 0.9,18.2 v 59.3 c 0,2.7 0.3,4.5 0.8,5.5 0.5,0.9 1.4,1.4 2.6,1.4 1.8,0 3.1,-1.1 3.9,-3.2 0.7,-2.1 1.1,-6.1 1.1,-11.9 v -5.2 h 10.9 v 8.7 c 0,10.1 -2,17.7 -6.1,22.5 -4,4.9 -10.3,7.3 -18.6,7.3 -5.6,0 -10.1,-1.4 -13.5,-4.4 -3.4,-3.1 -5.9,-7.6 -7.5,-13.7 z m -2.5,-48.3 c -11.8,7.8 -19.2,13.7 -22.4,17.9 -3.2,4.1 -4.8,8.7 -4.8,13.7 0,4 1.1,7.2 3.2,9.6 2.1,2.3 5,3.5 8.5,3.5 5.2,0 9.1,-2.4 11.7,-7.2 2.6,-4.8 3.9,-11.9 3.9,-21.5 v -16 z"
         class="st0"
         inkscape:connector-curvature="0"
         style="fill:#c65b28;stroke-width:3.31522942" />
      <path
         id="path821"
         d="m 276.1,163.4 h -12 l 0.1,-16.1 c 8,-0.2 13.9,-2.8 17.7,-7.7 3.8,-4.9 6.1,-13 6.8,-24.4 h 16.6 v 32.1 h 21.3 v 16.1 h -21.3 v 82.1 c 0,4 0.4,6.7 1.2,8 0.8,1.4 2.1,2.1 4,2.1 2.1,0 3.5,-0.8 4.4,-2.3 0.8,-1.5 1.3,-4.1 1.3,-7.8 0.1,-1.8 0.1,-3.7 0.2,-5.5 0.1,-0.6 0.1,-0.9 0.1,-1 v -7.7 h 13.2 v 12.9 c 0,9.6 -2,16.6 -6.1,21.3 -4.1,4.6 -10.4,7 -18.9,7 -10.8,0 -18.3,-2.2 -22.4,-6.6 -4.2,-4.4 -6.2,-12.6 -6.2,-24.6 z"
         class="st0"
         inkscape:connector-curvature="0"
         style="fill:#c65b28;stroke-width:3.31522942" />
      <path
         id="path823"
         d="m 403.7,254.6 c -3.2,6 -7.3,10.4 -12.1,13.4 -4.8,3 -10.4,4.5 -16.7,4.5 -9.4,0 -16.9,-2.8 -22.3,-8.3 -5.5,-5.5 -8.2,-12.9 -8.2,-22.3 0,-8.3 2.2,-15.2 6.6,-20.7 4.4,-5.5 13,-11.4 25.7,-17.6 10.9,-5.3 17.8,-9.8 20.8,-13.4 3,-3.6 4.5,-8.3 4.5,-13.9 0,-5.4 -1.7,-9.8 -5.1,-13 -3.4,-3.2 -7.9,-4.8 -13.6,-4.8 -3.7,0 -7.1,0.6 -10,1.8 -2.9,1.2 -5.4,3 -7.4,5.5 0.1,0 0.3,0 0.6,-0.1 1.4,-0.2 2.4,-0.3 3.1,-0.3 4.1,0 7.5,1.4 10.1,4.1 2.6,2.8 3.9,6.3 3.9,10.7 0,4.6 -1.6,8.3 -4.7,11.2 -3.1,2.9 -7.1,4.4 -12.1,4.4 -5.4,0 -9.8,-1.7 -13.1,-5 -3.3,-3.3 -5,-7.8 -5,-13.5 0,-9.8 3.8,-17.7 11.4,-23.9 7.6,-6.2 17.6,-9.3 29.9,-9.3 8.9,0 16.3,1.4 22.2,4.1 5.9,2.7 10.6,6.9 14.2,12.5 1.3,2.1 2.3,5.3 2.9,9.4 0.6,4.1 0.9,10.2 0.9,18.2 v 59.3 c 0,2.7 0.3,4.5 0.8,5.5 0.5,0.9 1.4,1.4 2.6,1.4 1.8,0 3.1,-1.1 3.9,-3.2 0.7,-2.1 1.1,-6.1 1.1,-11.9 v -5.2 h 10.9 v 8.7 c 0,10.1 -2,17.7 -6.1,22.5 -4,4.9 -10.2,7.3 -18.6,7.3 -5.6,0 -10.1,-1.4 -13.5,-4.4 -3.6,-3.1 -6.1,-7.6 -7.6,-13.7 z m -2.6,-48.3 c -11.8,7.8 -19.2,13.7 -22.4,17.9 -3.2,4.1 -4.8,8.7 -4.8,13.7 0,4 1.1,7.2 3.2,9.6 2.1,2.3 5,3.5 8.5,3.5 5.2,0 9.1,-2.4 11.7,-7.2 2.6,-4.8 3.9,-11.9 3.9,-21.5 v -16 z"
         class="st0"
         inkscape:connector-curvature="0"
         style="fill:#c65b28;stroke-width:3.31522942" />
      <path
         id="path825"
         d="m 482,269 -24.6,-98.4 c -0.7,-2.9 -1.8,-4.8 -3.1,-5.7 -1.3,-0.9 -3.4,-1.4 -6.3,-1.5 l -0.1,-16.1 h 48.7 v 16.1 c -3.5,0 -5.9,0.4 -7.3,1.3 -1.4,0.8 -2.1,2.4 -2.1,4.6 0,0.3 0,0.7 0.1,1.2 0.1,0.5 0.2,1.3 0.3,2.3 l 12,63 13.8,-62.9 c 0.1,-0.7 0.3,-1.3 0.3,-1.9 0.1,-0.6 0.1,-1.3 0.1,-2.2 0,-1.9 -0.8,-3.3 -2.3,-4.1 -1.5,-0.8 -3.9,-1.3 -7.2,-1.3 v -16.1 h 35.8 v 16.1 c -2.4,0.5 -4.3,1.4 -5.6,2.6 -1.3,1.2 -2.2,3 -2.7,5.2 L 507.2,269 Z"
         class="st0"
         inkscape:connector-curvature="0"
         style="fill:#c65b28;stroke-width:3.31522942" />
      <path
         id="path827"
         d="m 578.8,212.1 v 7 c 0,11.9 1.4,20.7 4.3,26.3 2.9,5.7 7.3,8.5 13.3,8.5 4.6,0 8.1,-1.9 10.6,-5.8 2.5,-3.9 3.8,-9.4 3.8,-16.6 v -11 h 20.9 v 6.9 c 0,15.3 -3.1,26.6 -9.2,33.9 -6.1,7.4 -15.6,11 -28.3,11 -15.7,0 -27.3,-5.3 -34.7,-15.8 -7.4,-10.5 -11.1,-26.9 -11.1,-49.3 0,-20.5 3.8,-36.2 11.4,-47.1 7.6,-10.9 18.5,-16.4 32.7,-16.4 12.6,0 22.2,4.4 29,13.1 6.8,8.7 10.2,21.1 10.2,37.3 V 212 h -52.9 z m 0,-17.8 h 25 v -3.6 c 0,-11.8 -0.9,-19.9 -2.5,-24.2 -1.7,-4.3 -4.7,-6.4 -8.9,-6.4 -4.7,0 -8.1,2.5 -10.1,7.6 -2.2,5 -3.3,13.9 -3.5,26.6 z"
         class="st0"
         inkscape:connector-curvature="0"
         style="fill:#c65b28;stroke-width:3.31522942" />
      <path
         id="path829"
         d="m 680.3,157.7 c 2.5,-3.7 5.4,-6.6 8.8,-8.7 3.4,-2 7.1,-3 11.1,-3 6.5,0 11.7,2.2 15.6,6.6 3.9,4.4 5.8,10.3 5.8,17.8 0,6.5 -1.5,11.6 -4.4,15.3 -2.9,3.7 -6.9,5.6 -11.8,5.6 -4,0 -7.2,-1.3 -9.6,-4 -2.3,-2.7 -3.5,-6.3 -3.5,-10.9 0,-4.6 1.3,-8.2 3.8,-10.8 2.5,-2.6 6.1,-4.2 10.7,-4.5 -1,-1 -2.1,-1.8 -3.2,-2.3 -1.1,-0.5 -2.4,-0.7 -3.8,-0.7 -5.2,0 -9,2.3 -11.2,6.9 -2.3,4.6 -3.4,12.5 -3.4,23.6 V 243 c 0,4.3 0.6,7 1.9,8.1 1.2,1.1 3.9,1.7 7.8,1.7 h 5 V 269 h -54.3 v -16.2 c 4.5,0 7.4,-0.6 8.6,-1.7 1.3,-1.1 1.9,-3.8 1.9,-8.1 v -69.7 c 0,-4.3 -0.7,-7 -2,-8.2 -1.3,-1.2 -4.2,-1.8 -8.6,-1.8 v -16.1 h 34.9 v 10.5 z"
         class="st0"
         inkscape:connector-curvature="0"
         style="fill:#c65b28;stroke-width:3.31522942" />
      <path
         id="path831"
         d="m 732,269 v -48.5 h 15.1 c 0.7,10.7 3.7,19.3 8.8,25.9 5.1,6.6 11.3,9.9 18.5,9.9 3.8,0 6.8,-1 8.9,-3 2.1,-2 3.2,-4.8 3.2,-8.4 0,-3.7 -1,-6.8 -2.9,-9.5 -1.9,-2.6 -6.3,-6.1 -13.1,-10.4 -3.5,-2.3 -8.3,-5.2 -14.3,-8.6 -6,-3.5 -9.7,-5.9 -11.2,-7.3 -5.1,-4.6 -8.7,-9.2 -10.8,-13.8 -2.1,-4.6 -3.2,-9.8 -3.2,-15.7 0,-10.6 3.1,-19.2 9.3,-25.8 6.2,-6.6 14.3,-9.9 24.3,-9.9 4.7,0 9,0.8 13,2.5 4,1.7 7.7,4.3 11.1,7.7 l 5.6,-6.8 h 11.8 v 43.8 h -14.4 c -1.1,-9.8 -3.8,-17.3 -7.9,-22.7 -4.2,-5.3 -9.6,-8 -16.1,-8 -3.5,0 -6.3,1 -8.4,3 -2.2,2 -3.2,4.6 -3.2,7.8 0,3.3 1.4,6.5 4.2,9.5 2.8,3.1 7.8,6.7 14.9,10.9 2.6,1.5 6.2,3.5 10.7,6 7,3.9 11.3,6.7 13,8.3 4.7,4.3 8.1,8.9 10.2,13.9 2.1,5 3.1,11 3.1,18.1 0,10.4 -3,18.8 -8.9,25.1 -6,6.3 -13.8,9.5 -23.6,9.5 -5.9,0 -11.1,-1 -15.8,-2.9 -4.6,-1.9 -9.1,-5 -13.3,-9.2 L 745,269 Z"
         class="st0"
         inkscape:connector-curvature="0"
         style="fill:#c65b28;stroke-width:3.31522942" />
      <path
         id="path833"
         d="m 856.2,212.1 v 7 c 0,11.9 1.4,20.7 4.3,26.3 2.9,5.7 7.3,8.5 13.3,8.5 4.6,0 8.1,-1.9 10.6,-5.8 2.5,-3.9 3.8,-9.4 3.8,-16.6 v -11 h 20.9 v 6.9 c 0,15.3 -3.1,26.6 -9.2,33.9 -6.1,7.4 -15.6,11 -28.3,11 -15.7,0 -27.3,-5.3 -34.7,-15.8 -7.4,-10.5 -11.1,-26.9 -11.1,-49.3 0,-20.5 3.8,-36.2 11.4,-47.1 7.6,-10.9 18.5,-16.4 32.7,-16.4 12.6,0 22.3,4.4 29,13.1 6.8,8.7 10.2,21.1 10.2,37.3 V 212 h -52.9 z m 0,-17.8 h 25 v -3.6 c 0,-11.8 -0.9,-19.9 -2.5,-24.2 -1.7,-4.3 -4.7,-6.4 -8.9,-6.4 -4.7,0 -8.1,2.5 -10.1,7.6 -2.1,5 -3.3,13.9 -3.5,26.6 z"
         class="st0"
         inkscape:connector-curvature="0"
         style="fill:#c65b28;stroke-width:3.31522942" />
      <path
         id="path835"
         d="m 1149.2,137.9 c -9.1,-9.1 -21.7,-14.7 -35.6,-14.7 0,0 0,0 0,0 l -9.2,-41.6 c 3.6,-1.7 6.9,-4 9.7,-6.8 6.3,-6.3 10.2,-15 10.2,-24.6 0,-9.6 -3.9,-18.3 -10.2,-24.6 -6.3,-6.3 -15,-10.2 -24.6,-10.2 -9.6,0 -18.3,3.9 -24.6,10.2 -6.3,6.3 -10.2,15 -10.2,24.6 0,9.6 3.9,18.4 10.2,24.6 6.3,6.3 15,10.2 24.6,10.2 0.4,0 0.8,0 1.2,-0.1 l 9,40.3 c -8.2,2.4 -15.6,6.8 -21.5,12.7 -9.1,9.1 -14.7,21.7 -14.7,35.6 0,13.9 5.6,26.5 14.7,35.6 1.8,1.8 3.7,3.4 5.7,4.9 l -17.2,28.8 c -11.4,-6.3 -24.4,-10 -38.3,-9.9 -21.7,0 -41.5,8.8 -55.7,23.1 -14.3,14.2 -23.1,34 -23.1,55.7 0,21.7 8.8,41.5 23.1,55.7 14.2,14.3 34,23.1 55.7,23.1 21.7,0 41.5,-8.8 55.7,-23.1 14.2,-14.2 23.1,-34 23.1,-55.7 0,-21.7 -8.8,-41.5 -23.1,-55.7 -1.8,-1.8 -3.7,-3.5 -5.6,-5.1 l 17.9,-30.1 c 5.4,2 11.3,3.1 17.4,3.1 13.9,0 26.5,-5.6 35.6,-14.7 9.1,-9.1 14.7,-21.7 14.7,-35.6 -0.2,-14 -5.8,-26.6 -14.9,-35.7 z m -84.1,-87.8 c 0,-6.7 2.7,-12.7 7.1,-17.1 4.4,-4.4 10.4,-7.1 17.1,-7.1 6.7,0 12.7,2.7 17.1,7.1 4.4,4.4 7.1,10.4 7.1,17.1 0,6.7 -2.7,12.7 -7.1,17.1 -4.4,4.4 -10.4,7.1 -17.1,7.1 -6.7,0 -12.7,-2.7 -17.1,-7.1 -4.4,-4.4 -7.1,-10.4 -7.1,-17.1 z m 27.7,261.6 c 0,17.9 -7.2,34 -18.9,45.7 -11.7,11.7 -27.8,18.9 -45.7,18.9 -17.9,0 -34,-7.2 -45.7,-18.9 -11.7,-11.7 -18.9,-27.8 -18.9,-45.7 0,-17.9 7.2,-34 18.9,-45.7 11.7,-11.7 27.8,-18.9 45.7,-18.9 17.9,0 34,7.2 45.7,18.9 11.7,11.7 18.9,27.8 18.9,45.7 z m 46.4,-112.6 c -6.6,6.6 -15.6,10.6 -25.6,10.6 -10,0 -19,-4 -25.6,-10.6 -6.6,-6.6 -10.6,-15.6 -10.6,-25.6 0,-10 4,-19 10.6,-25.6 6.6,-6.6 15.5,-10.6 25.6,-10.6 10,0 19,4 25.6,10.6 6.5,6.6 10.6,15.6 10.6,25.6 0,10 -4.1,19 -10.6,25.6 z"
         class="st0"
         inkscape:connector-curvature="0"
         style="fill:#c65b28;stroke-width:3.31522942" />
      <g
         id="g843"
         style="stroke-width:3.31522942">
	<path
   id="path837"
   d="M 54.7,25.7 H 36.4 v -6.6 h 44.4 v 6.6 H 62.5 v 53.4 h -7.8 z"
   class="st1"
   inkscape:connector-curvature="0"
   style="fill:#9e9e9e;stroke-width:3.31522942" />

	<path
   id="path839"
   d="M 87.2,15.9 H 95 v 27 h 0.2 c 1.2,-2.2 3.2,-4.3 5.6,-5.6 2.3,-1.3 5.1,-2.1 8,-2.1 5.8,0 15,3.6 15,18.3 V 79.1 H 116 V 54.3 c 0,-6.9 -2.6,-12.7 -10,-12.7 -5.1,0 -9,3.6 -10.5,7.7 C 95.1,50.5 95,51.6 95,53 v 26 h -7.8 z"
   class="st1"
   inkscape:connector-curvature="0"
   style="fill:#9e9e9e;stroke-width:3.31522942" />

	<path
   id="path841"
   d="m 141.6,59 c 0.2,10.6 6.8,15 14.8,15 5.6,0 9.1,-1 11.9,-2.2 l 1.4,5.6 c -2.8,1.2 -7.6,2.8 -14.4,2.8 -13.3,0 -21.2,-8.8 -21.2,-21.8 0,-13 7.7,-23.1 20.2,-23.1 14.1,0 17.8,12.3 17.8,20.2 0,1.6 -0.1,2.8 -0.3,3.6 h -30.2 z m 22.9,-5.7 c 0.1,-4.9 -2,-12.6 -10.9,-12.6 -8,0 -11.4,7.2 -12,12.6 z"
   class="st1"
   inkscape:connector-curvature="0"
   style="fill:#9e9e9e;stroke-width:3.31522942" />

</g>
      <g
         id="g859"
         style="stroke-width:3.31522942">
	<path
   id="path845"
   d="m 623,303.5 c 4.2,-0.7 9.7,-1.3 16.7,-1.3 8.6,0 14.9,2 18.9,5.6 3.6,3.2 5.9,8.1 5.9,14.1 0,6.1 -1.8,10.9 -5.2,14.4 -4.7,4.9 -12.1,7.4 -20.6,7.4 -2.6,0 -5,-0.1 -7,-0.6 v 27 H 623 Z m 8.7,32.5 c 1.9,0.5 4.3,0.7 7.2,0.7 10.5,0 16.9,-5.2 16.9,-14.3 0,-9 -6.4,-13.3 -15.9,-13.3 -3.8,0 -6.7,0.3 -8.2,0.7 z"
   class="st1"
   inkscape:connector-curvature="0"
   style="fill:#9e9e9e;stroke-width:3.31522942" />

	<path
   id="path847"
   d="m 675,336.8 c 0,-5.7 -0.1,-10.6 -0.4,-15.1 h 7.7 l 0.4,9.6 h 0.3 c 2.2,-6.5 7.6,-10.6 13.5,-10.6 0.9,0 1.6,0.1 2.4,0.2 v 8.3 c -0.9,-0.2 -1.8,-0.2 -3,-0.2 -6.2,0 -10.6,4.6 -11.8,11.2 -0.2,1.2 -0.3,2.7 -0.3,4.1 v 25.8 H 675 Z"
   class="st1"
   inkscape:connector-curvature="0"
   style="fill:#9e9e9e;stroke-width:3.31522942" />

	<path
   id="path849"
   d="m 751.3,345.5 c 0,17.9 -12.5,25.7 -24.1,25.7 -13,0 -23.2,-9.6 -23.2,-24.9 0,-16.1 10.7,-25.6 24,-25.6 13.9,0 23.3,10.1 23.3,24.8 z M 713,346 c 0,10.6 6,18.6 14.6,18.6 8.4,0 14.7,-7.9 14.7,-18.8 0,-8.2 -4.1,-18.5 -14.5,-18.5 -10.3,0 -14.8,9.6 -14.8,18.7 z"
   class="st1"
   inkscape:connector-curvature="0"
   style="fill:#9e9e9e;stroke-width:3.31522942" />

	<path
   id="path851"
   d="m 751.2,384.4 c 4.1,-0.3 7.5,-1.4 9.6,-3.8 2.4,-2.7 3.4,-6.5 3.4,-18.1 v -40.7 h 8.8 v 44.1 c 0,9.4 -1.5,15.5 -5.8,19.9 -3.9,3.9 -10.3,5.5 -15,5.5 z M 774,308.1 c 0,2.9 -2,5.4 -5.6,5.4 -3.2,0 -5.3,-2.5 -5.3,-5.4 0,-3 2.2,-5.5 5.5,-5.5 3.3,0 5.4,2.5 5.4,5.5 z"
   class="st1"
   inkscape:connector-curvature="0"
   style="fill:#9e9e9e;stroke-width:3.31522942" />

	<path
   id="path853"
   d="m 793.1,347.5 c 0.2,11.9 7.7,16.8 16.6,16.8 6.3,0 10.2,-1.1 13.4,-2.5 l 1.6,6.3 c -3.1,1.4 -8.5,3.1 -16.2,3.1 -14.9,0 -23.8,-9.9 -23.8,-24.5 0,-14.6 8.6,-26 22.7,-26 15.9,0 20,13.8 20,22.7 0,1.8 -0.1,3.1 -0.3,4.1 z m 25.8,-6.3 c 0.1,-5.5 -2.3,-14.2 -12.2,-14.2 -9,0 -12.8,8.1 -13.5,14.2 z"
   class="st1"
   inkscape:connector-curvature="0"
   style="fill:#9e9e9e;stroke-width:3.31522942" />

	<path
   id="path855"
   d="m 873.5,368.5 c -2.3,1.1 -7.4,2.8 -13.9,2.8 -14.6,0 -24.1,-9.9 -24.1,-24.7 0,-14.9 10.2,-25.8 26,-25.8 5.2,0 9.8,1.3 12.2,2.6 l -2,6.7 c -2.1,-1.1 -5.4,-2.3 -10.2,-2.3 -11.1,0 -17.1,8.3 -17.1,18.3 0,11.2 7.2,18.1 16.8,18.1 5,0 8.3,-1.2 10.8,-2.3 z"
   class="st1"
   inkscape:connector-curvature="0"
   style="fill:#9e9e9e;stroke-width:3.31522942" />

	<path
   id="path857"
   d="m 896.5,310.1 v 11.6 h 12.6 v 6.7 h -12.6 v 26.1 c 0,6 1.7,9.4 6.6,9.4 2.4,0 3.8,-0.2 5.1,-0.6 l 0.4,6.7 c -1.7,0.6 -4.4,1.2 -7.8,1.2 -4.1,0 -7.4,-1.4 -9.5,-3.7 -2.4,-2.7 -3.4,-7 -3.4,-12.7 v -26.4 h -7.5 v -6.7 h 7.5 v -9 z"
   class="st1"
   inkscape:connector-curvature="0"
   style="fill:#9e9e9e;stroke-width:3.31522942" />

</g>
      <g
         id="g863"
         style="stroke-width:3.31522942">
	<path
   id="path861"
   d="m 974.4,140.6 c 0,13.2 -10.4,23.6 -23.9,23.6 -13.4,0 -24.1,-10.4 -24.1,-23.6 0,-13 10.7,-23.4 24.1,-23.4 13.5,0 23.9,10.4 23.9,23.4 z m -42,0 c 0,10.4 7.7,18.7 18.2,18.7 10.3,0 17.8,-8.3 17.8,-18.5 0,-10.4 -7.5,-18.8 -17.9,-18.8 -10.5,-0.1 -18.1,8.3 -18.1,18.6 z m 14.3,12.2 h -5.4 v -23.4 c 2.1,-0.4 5.1,-0.7 9,-0.7 4.4,0 6.4,0.7 8.1,1.7 1.3,1 2.3,2.8 2.3,5.1 0,2.6 -2,4.6 -4.8,5.4 v 0.3 c 2.3,0.9 3.6,2.6 4.3,5.7 0.7,3.6 1.1,5 1.7,5.8 H 956 c -0.7,-0.9 -1.1,-3 -1.9,-5.7 -0.4,-2.6 -1.9,-3.7 -4.8,-3.7 h -2.6 z m 0.2,-13.2 h 2.6 c 3,0 5.4,-1 5.4,-3.4 0,-2.1 -1.6,-3.6 -5,-3.6 -1.4,0 -2.4,0.1 -3,0.3 z"
   class="st0"
   inkscape:connector-curvature="0"
   style="fill:#c65b28;stroke-width:3.31522942" />

</g>
    </g>
    <g
       transform="matrix(0.04399025,0,0,0.04399044,152.74161,48.553483)"
       id="layer1-6"
       inkscape:label="Layer 1"
       style="stroke-width:6.01457739">
      <g
         id="g3052"
         style="stroke-width:6.01457739">
        <path
           inkscape:export-ydpi="250.55"
           inkscape:export-xdpi="250.55"
           inkscape:export-filename="new.png"
           inkscape:connector-curvature="0"
           id="path3055"
           d="m 365.3125,184.8125 a 46.724621,46.342246 0 0 0 -17.90625,4.53125 l -244.34375,116.75 a 46.724621,46.342246 0 0 0 -25.28125,31.4375 L 17.5,599.78125 A 46.724621,46.342246 0 0 0 23.84375,635.3125 46.724621,46.342246 0 0 0 26.5,639 l 169.125,210.28125 a 46.724621,46.342246 0 0 0 36.53125,17.4375 L 503.375,866.65625 A 46.724621,46.342246 0 0 0 539.90625,849.25 L 708.96875,638.9375 A 46.724621,46.342246 0 0 0 718,599.71875 l -60.375,-262.25 a 46.724621,46.342246 0 0 0 -25.28125,-31.4375 l -244.375,-116.6875 A 46.724621,46.342246 0 0 0 365.3125,184.8125 Z"
           style="fill:#326ce5;fill-opacity:1;stroke:#ffffff;stroke-width:0;stroke-miterlimit:4;stroke-dasharray:none;stroke-opacity:1" />
        <path
           inkscape:export-ydpi="250.55"
           inkscape:export-xdpi="250.55"
           inkscape:export-filename="./path3059.png"
           sodipodi:nodetypes="ccccccccsccccscssccsccccccccscccsccccccccccccccscccscsccsccccscscsccccccccscccscsccccsccccscscscccccccccccccccscccsccccccccccccscccccscccccccccccccccccccccccscccscccccccccscccscccc"
           style="color:#000000;font-style:normal;font-variant:normal;font-weight:normal;font-stretch:normal;font-size:medium;line-height:normal;font-family:Sans;-inkscape-font-specification:Sans;text-indent:0;text-align:start;text-decoration:none;text-decoration-line:none;letter-spacing:normal;word-spacing:normal;text-transform:none;writing-mode:lr-tb;direction:ltr;baseline-shift:baseline;text-anchor:start;display:inline;overflow:visible;visibility:visible;fill:#ffffff;fill-opacity:1;stroke:#ffffff;stroke-width:1.50364435;stroke-miterlimit:4;stroke-dasharray:none;stroke-opacity:1;marker:none;enable-background:accumulate"
           d="m 367.73366,274.05962 c -8.07696,8.2e-4 -14.62596,7.27591 -14.625,16.25 1e-5,0.13773 0.0282,0.26934 0.0312,0.40625 -0.0119,1.21936 -0.0708,2.68836 -0.0312,3.75 0.19262,5.176 1.3209,9.13749 2,13.90625 1.23028,10.20666 2.26117,18.66736 1.625,26.53125 -0.61869,2.9654 -2.80288,5.67741 -4.75,7.5625 l -0.34375,6.1875 c -8.77682,0.72717 -17.61235,2.05874 -26.4375,4.0625 -37.97461,8.62218 -70.67008,28.18307 -95.5625,54.59375 -1.61522,-1.10193 -4.44103,-3.12914 -5.2813,-3.75 -2.61117,0.35262 -5.25021,1.15829 -8.6875,-0.84375 -6.54491,-4.40563 -12.50587,-10.48693 -19.71875,-17.8125 -3.30498,-3.50419 -5.69832,-6.84101 -9.625,-10.21875 -0.89172,-0.76707 -2.25258,-1.80455 -3.25,-2.59375 -3.06988,-2.44757 -6.6907,-3.72402 -10.1875,-3.84375 -4.49589,-0.15394 -8.82394,1.60385 -11.65625,5.15625 -5.03521,6.31538 -3.42312,15.96805 3.59375,21.5625 0.0712,0.0567 0.14702,0.10078 0.21875,0.15625 0.96422,0.78162 2.14496,1.78313 3.03125,2.4375 4.16687,3.07655 7.9732,4.65145 12.125,7.09375 8.747,5.40181 15.99837,9.88086 21.75,15.28125 2.24602,2.39417 2.63858,6.61292 2.9375,8.4375 l 4.6875,4.1875 c -25.09342,37.76368 -36.70686,84.40946 -29.8437,131.9375 l -6.125,1.78125 c -1.6143,2.08461 -3.89541,5.36474 -6.2813,6.34375 -7.52513,2.37021 -15.99424,3.24059 -26.21875,4.3125 -4.80031,0.39915 -8.94218,0.16095 -14.03125,1.125 -1.12008,0.21218 -2.68072,0.61877 -3.90625,0.90625 -0.0426,0.009 -0.0824,0.0216 -0.125,0.0312 -0.0668,0.0155 -0.15456,0.0479 -0.21875,0.0625 -8.62014,2.08279 -14.15774,10.006 -12.375,17.8125 1.78316,7.80833 10.20314,12.55677 18.875,10.6875 0.0626,-0.0143 0.1535,-0.0167 0.21875,-0.0312 0.0979,-0.0224 0.18409,-0.0699 0.28125,-0.0937 1.20885,-0.26536 2.72377,-0.5606 3.78125,-0.84375 5.00334,-1.33963 8.62694,-3.30796 13.125,-5.03125 9.67694,-3.47077 17.69173,-6.37022 25.5,-7.5 3.26118,-0.25542 6.69711,2.01216 8.40625,2.96875 l 6.375,-1.09375 c 14.67018,45.48282 45.41416,82.24502 84.34375,105.3125 l -2.65625,6.375 c 0.95742,2.47542 2.01341,5.8247 1.30022,8.26932 -2.83868,7.3612 -7.70097,15.13097 -13.23772,23.79318 -2.68085,4.00192 -5.42453,7.10761 -7.84375,11.6875 -0.5789,1.09589 -1.31618,2.77932 -1.875,3.9375 -3.75884,8.04236 -1.00164,17.3052 6.21875,20.78125 7.26575,3.49788 16.28447,-0.19134 20.1875,-8.25 0.006,-0.0114 0.0257,-0.0198 0.0312,-0.0312 0.004,-0.009 -0.004,-0.0225 0,-0.0312 0.55593,-1.14255 1.34353,-2.64437 1.8125,-3.71875 2.07213,-4.74702 2.76161,-8.81506 4.21875,-13.40625 3.86962,-9.72014 5.99567,-19.91903 11.32258,-26.27411 1.45868,-1.74023 3.83681,-2.4095 6.30242,-3.06964 l 3.3125,-6 c 33.93824,13.0268 71.92666,16.52246 109.875,7.90625 8.65697,-1.96557 17.01444,-4.50945 25.09375,-7.5625 0.93098,1.65133 2.66113,4.8257 3.125,5.625 2.50559,0.81518 5.24044,1.23614 7.46875,4.53125 3.98539,6.80898 6.7109,14.86416 10.03125,24.59375 1.45738,4.59111 2.17762,8.65933 4.25,13.40625 0.47234,1.08195 1.256,2.60486 1.8125,3.75 3.89482,8.08484 12.94212,11.78667 20.21875,8.28125 7.2195,-3.4779 9.97974,-12.7399 6.21875,-20.78125 -0.55889,-1.15814 -1.3273,-2.84164 -1.90625,-3.9375 -2.41946,-4.57976 -5.1627,-7.65448 -7.84375,-11.65625 -5.53721,-8.66192 -10.12968,-15.8577 -12.96875,-23.21875 -1.18711,-3.79657 0.20028,-6.15774 1.125,-8.625 -0.55378,-0.63477 -1.73881,-4.22009 -2.4375,-5.90625 40.4574,-23.88816 70.29856,-62.02129 84.3125,-106.0625 1.8924,0.29742 5.18154,0.87936 6.25,1.09375 2.19954,-1.4507 4.22194,-3.34352 8.1875,-3.03125 7.80832,1.12937 15.82288,4.02973 25.5,7.5 4.49815,1.72306 8.1216,3.72313 13.125,5.0625 1.05749,0.28309 2.57238,0.5472 3.78125,0.8125 0.0972,0.0238 0.1833,0.0714 0.28125,0.0937 0.0653,0.0146 0.15615,0.0169 0.21875,0.0312 8.67236,1.86695 17.09384,-2.87871 18.875,-10.6875 1.78074,-7.80696 -3.7543,-15.73201 -12.375,-17.8125 -1.25393,-0.28513 -3.03225,-0.76938 -4.25,-1 -5.08912,-0.96378 -9.23092,-0.7261 -14.03125,-1.125 -10.22456,-1.07138 -18.6935,-1.94269 -26.21875,-4.3125 -3.06826,-1.19028 -5.25103,-4.84124 -6.31255,-6.34375 l -5.90625,-1.71875 c 3.06226,-22.15442 2.23655,-45.21134 -3.0625,-68.28125 -5.34839,-23.28471 -14.80037,-44.58084 -27.40625,-63.34375 1.51505,-1.37729 4.37619,-3.91091 5.1875,-4.65625 0.23716,-2.62417 0.0334,-5.37553 2.75,-8.28125 5.75134,-5.40069 13.00329,-9.87898 21.75,-15.28125 4.15167,-2.44252 7.98954,-4.01698 12.15625,-7.09375 0.94225,-0.69576 2.2289,-1.79759 3.21875,-2.59375 7.01538,-5.59633 8.63058,-15.24842 3.59375,-21.5625 -5.03683,-6.31408 -14.79712,-6.90883 -21.8125,-1.3125 -0.99856,0.79085 -2.35353,1.82252 -3.25,2.59375 -3.9265,3.37796 -6.35145,6.71439 -9.65625,10.21875 -7.21249,7.32595 -13.17407,13.43777 -19.71875,17.84375 -2.83601,1.65106 -6.98996,1.07978 -8.87505,0.96875 l -5.5625,3.96875 c -31.7188,-33.26057 -74.90466,-54.52546 -121.40605,-58.6563 -0.13006,-1.94872 -0.30045,-5.47117 -0.34375,-6.53125 -1.90371,-1.82165 -4.20342,-3.37686 -4.78125,-7.3125 -0.63617,-7.86389 0.42597,-16.32459 1.65625,-26.53125 0.6791,-4.76876 1.80738,-8.73025 2,-13.90625 0.0438,-1.17663 -0.0265,-2.88401 -0.0312,-4.15625 -9.6e-4,-8.97409 -6.54804,-16.25082 -14.625,-16.25 z m -18.3125,113.4375 -4.34375,76.71875 -0.3125,0.15625 c -0.29134,6.86335 -5.93996,12.34375 -12.875,12.34375 -2.84081,0 -5.46294,-0.91229 -7.59375,-2.46875 l -0.125,0.0625 -62.90625,-44.59375 c 19.33365,-19.01115 44.06291,-33.06039 72.5625,-39.53125 5.20599,-1.18203 10.40966,-2.0591 15.59375,-2.6875 z m 36.65625,0 c 33.27347,4.09232 64.04501,19.15882 87.625,42.25 l -62.5,44.3125 -0.21875,-0.0937 c -5.54745,4.05169 -13.36343,3.04639 -17.6875,-2.375 -1.77132,-2.22096 -2.70072,-4.83239 -2.8125,-7.46875 l -0.0625,-0.0312 z m -147.625,70.875 57.4375,51.375 -0.0625,0.3125 c 5.18437,4.50697 5.94888,12.32794 1.625,17.75 -1.7712,2.22105 -4.14208,3.71074 -6.6875,4.40625 l -0.0625,0.25 -73.625,21.25 c -3.74728,-34.26517 4.32855,-67.57364 21.375,-95.34375 z m 258.15625,0.0312 c 8.5341,13.83256 14.99655,29.28214 18.84375,46.03125 3.80106,16.54828 4.75499,33.06697 3.1875,49.03125 l -74,-21.3125 -0.0625,-0.3125 c -6.6265,-1.81104 -10.69893,-8.55162 -9.15625,-15.3125 0.63203,-2.76962 2.10222,-5.11264 4.09375,-6.84375 l -0.0312,-0.15625 57.125,-51.125 z m -140.65625,55.3125 h 23.53125 l 14.625,18.28125 -5.25,22.8125 -21.125,10.15625 -21.1875,-10.1875 -5.25,-22.8125 z m 75.4375,62.5625 c 0.99997,-0.0505 1.99558,0.0396 2.96875,0.21875 l 0.125,-0.15625 76.15625,12.875 c -11.1455,31.3131 -32.47281,58.44018 -60.96875,76.59375 l -29.5625,-71.40625 0.0937,-0.125 c -2.71561,-6.30999 0.002,-13.70956 6.25,-16.71875 1.59965,-0.77041 3.27089,-1.19701 4.9375,-1.28125 z m -127.90625,0.3125 c 5.81174,0.0815 11.02462,4.11525 12.375,10.03125 0.63219,2.76958 0.3245,5.51375 -0.71875,7.9375 l 0.21875,0.28125 -29.25,70.6875 c -27.34716,-17.5486 -49.12927,-43.82403 -60.78125,-76.06245 l 75.5,-12.8125 0.125,0.15625 c 0.84451,-0.15541 1.701,-0.2304 2.53125,-0.21875 z m 63.78125,30.9688 c 2.02445,-0.0744 4.07865,0.34098 6.03125,1.28125 2.55951,1.23253 4.53673,3.17319 5.78125,5.5 h 0.28125 l 37.21875,67.25 c -4.83029,1.61923 -9.79609,3.00308 -14.875,4.15625 -28.46453,6.4629 -56.83862,4.50467 -82.53125,-4.25 l 37.125,-67.125 h 0.0625 c 2.22767,-4.16441 6.45247,-6.64887 10.90625,-6.8125 z"
           id="path3059"
           inkscape:connector-curvature="0" />
      </g>
    </g>
    <text
       xml:space="preserve"
       style="font-style:normal;font-variant:normal;font-weight:normal;font-stretch:normal;font-size:25.39999962px;line-height:120.00000477%;font-family:'Nimbus Sans';-inkscape-font-specification:'Nimbus Sans';letter-spacing:0px;word-spacing:0px;fill:#000000;fill-opacity:1;stroke:none;stroke-width:0.26458332px;stroke-linecap:butt;stroke-linejoin:miter;stroke-opacity:1"
       x="125.30878"
       y="77.346542"
       id="text913"><tspan
         sodipodi:role="line"
         id="tspan911"
         x="125.30878"
         y="77.346542"
         style="font-size:16.93333244px;fill:#000000;fill-opacity:1;stroke:none;stroke-width:0.26458332px">on</tspan></text>
  </g>
  <style
     id="style815"
     type="text/css">
	.st0{fill:#C65B28;}
	.st1{fill:#9E9E9E;}
</style>
</svg>
